# xmcd CD database file
#
# Track frame offsets:
#	150
#	26064
#	41956
#	63027
#	85190
#	111121
#	127024
#	148030
#
# Disc length: 2266 seconds
#
# Revision: 0
# Processed by: cddbd v1.5.2PL0 Copyright (c) Steve Scherf et al.
# Submitted via: CD2WAV32(JP) R3.22
#
DISCID=6e08d808
DTITLE=倖田來未 - MOON
DYEAR=2008
DGENRE=JPop
TTITLE0=Moon Crying
TTITLE1=That Ain't Cool
TTITLE2=Once Again
TTITLE3=Lady Go!
TTITLE4=Moon Crying（Instrumental）
TTITLE5=That Ain't Cool（Instrumental）
TTITLE6=Once Again（Instrumental）
TTITLE7=Lady Go!（Instrumental）
EXTD=
EXTT0=
EXTT1=
EXTT2=
EXTT3=
EXTT4=
EXTT5=
EXTT6=
EXTT7=
PLAYORDER=
